<svg width="54" height="54" viewBox="0 0 54 54" fill="none" xmlns="http://www.w3.org/2000/svg">
<path d="M27 21.42C25.8964 21.42 24.8175 21.7473 23.8999 22.3604C22.9823 22.9735 22.2671 23.845 21.8448 24.8646C21.4224 25.8842 21.3119 27.0062 21.5272 28.0886C21.7425 29.171 22.274 30.1653 23.0543 30.9457C23.8347 31.726 24.829 32.2575 25.9114 32.4728C26.9938 32.6881 28.1158 32.5776 29.1354 32.1552C30.155 31.7329 31.0265 31.0177 31.6396 30.1001C32.2527 29.1825 32.58 28.1036 32.58 27C32.58 26.2672 32.4357 25.5416 32.1552 24.8646C31.8748 24.1876 31.4638 23.5725 30.9457 23.0543C30.4275 22.5362 29.8124 22.1252 29.1354 21.8448C28.4584 21.5643 27.7328 21.42 27 21.42ZM49.3425 15.9075C49.3321 14.1698 49.0121 12.4479 48.3975 10.8225C47.9459 9.63283 47.2471 8.55246 46.3473 7.65267C45.4475 6.75287 44.3672 6.05411 43.1775 5.6025C41.5521 4.98791 39.8302 4.6679 38.0925 4.6575C35.19 4.5 34.335 4.5 27 4.5C19.665 4.5 18.81 4.5 15.9075 4.6575C14.1698 4.6679 12.4479 4.98791 10.8225 5.6025C9.63283 6.05411 8.55246 6.75287 7.65267 7.65267C6.75287 8.55246 6.05411 9.63283 5.6025 10.8225C4.98791 12.4479 4.6679 14.1698 4.6575 15.9075C4.5 18.81 4.5 19.665 4.5 27C4.5 34.335 4.5 35.19 4.6575 38.0925C4.68344 39.836 5.00291 41.5627 5.6025 43.2C6.04958 44.3855 6.74809 45.4601 7.65 46.35C8.54639 47.2546 9.62895 47.9533 10.8225 48.3975C12.4479 49.0121 14.1698 49.3321 15.9075 49.3425C18.81 49.5 19.665 49.5 27 49.5C34.335 49.5 35.19 49.5 38.0925 49.3425C39.8302 49.3321 41.5521 49.0121 43.1775 48.3975C44.3711 47.9533 45.4536 47.2546 46.35 46.35C47.2519 45.4601 47.9504 44.3855 48.3975 43.2C49.0101 41.5662 49.33 39.8373 49.3425 38.0925C49.5 35.19 49.5 34.335 49.5 27C49.5 19.665 49.5 18.81 49.3425 15.9075ZM43.6275 33.9075C43.5565 35.2961 43.2601 36.664 42.75 37.9575C42.3132 39.0368 41.6638 40.0172 40.8405 40.8405C40.0172 41.6638 39.0368 42.3132 37.9575 42.75C36.6517 43.2317 35.2762 43.4977 33.885 43.5375H20.115C18.7238 43.4977 17.3483 43.2317 16.0425 42.75C14.9264 42.3361 13.9186 41.6745 13.095 40.815C12.2792 40.0083 11.6495 39.033 11.25 37.9575C10.7679 36.6526 10.5093 35.2758 10.485 33.885V20.115C10.5093 18.7242 10.7679 17.3474 11.25 16.0425C11.6639 14.9264 12.3255 13.9186 13.185 13.095C13.9962 12.2847 14.9702 11.6558 16.0425 11.25C17.3483 10.7683 18.7238 10.5023 20.115 10.4625H33.885C35.2762 10.5023 36.6517 10.7683 37.9575 11.25C39.0736 11.6639 40.0814 12.3255 40.905 13.185C41.7208 13.9917 42.3505 14.967 42.75 16.0425C43.2317 17.3483 43.4977 18.7238 43.5375 20.115V27C43.5375 31.635 43.695 32.1075 43.6275 33.885V33.9075ZM40.0275 17.1675C39.7596 16.4407 39.3372 15.7807 38.7895 15.233C38.2418 14.6853 37.5818 14.2629 36.855 13.995C35.8571 13.6491 34.806 13.4815 33.75 13.5H20.25C19.1886 13.5104 18.1374 13.7084 17.145 14.085C16.4293 14.3407 15.7763 14.7459 15.2293 15.2735C14.6823 15.8011 14.2539 16.439 13.9725 17.145C13.6469 18.1474 13.4873 19.1962 13.5 20.25V33.75C13.5235 34.8101 13.7212 35.859 14.085 36.855C14.3529 37.5818 14.7753 38.2418 15.323 38.7895C15.8707 39.3372 16.5307 39.7596 17.2575 40.0275C18.2178 40.3794 19.2278 40.5769 20.25 40.6125H33.75C34.8114 40.6021 35.8626 40.4041 36.855 40.0275C37.5818 39.7596 38.2418 39.3372 38.7895 38.7895C39.3372 38.2418 39.7596 37.5818 40.0275 36.855C40.4041 35.8626 40.6021 34.8114 40.6125 33.75V20.25C40.6121 19.1876 40.4137 18.1347 40.0275 17.145V17.1675ZM27 35.595C25.8723 35.595 24.7558 35.3725 23.7142 34.9403C22.6727 34.5081 21.7267 33.8746 20.9304 33.0762C20.134 32.2778 19.5031 31.3301 19.0736 30.2875C18.6441 29.2448 18.4245 28.1276 18.4275 27C18.4275 25.2991 18.9322 23.6365 19.8776 22.2225C20.823 20.8086 22.1667 19.707 23.7386 19.0571C25.3104 18.4073 27.0397 18.2384 28.7076 18.5718C30.3755 18.9053 31.9069 19.7261 33.108 20.9304C34.3092 22.1347 35.126 23.6683 35.4551 25.337C35.7842 27.0058 35.6108 28.7347 34.9568 30.3048C34.3028 31.8749 33.1976 33.2157 31.7812 34.1574C30.3648 35.0992 28.7009 35.5995 27 35.595ZM36 20.0925C35.5026 20.0399 35.0423 19.805 34.7078 19.4332C34.3733 19.0614 34.1882 18.5789 34.1882 18.0787C34.1882 17.5786 34.3733 17.0961 34.7078 16.7243C35.0423 16.3525 35.5026 16.1176 36 16.065C36.4974 16.1176 36.9577 16.3525 37.2922 16.7243C37.6267 17.0961 37.8118 17.5786 37.8118 18.0787C37.8118 18.5789 37.6267 19.0614 37.2922 19.4332C36.9577 19.805 36.4974 20.0399 36 20.0925Z" fill="white"/>
</svg>
