<svg width="24" height="25" viewBox="0 0 24 25" fill="none" xmlns="http://www.w3.org/2000/svg">
<path fill-rule="evenodd" clip-rule="evenodd" d="M12 0.5C5.3724 0.5 0 5.8724 0 12.5C0 14.768 0.63 16.892 1.7256 18.7016L0.6552 22.34C0.593742 22.5489 0.589698 22.7705 0.643493 22.9815C0.697289 23.1925 0.806937 23.3851 0.960911 23.5391C1.11489 23.6931 1.3075 23.8027 1.5185 23.8565C1.7295 23.9103 1.9511 23.9063 2.16 23.8448L5.7984 22.7744C7.66889 23.9059 9.81389 24.5028 12 24.5C18.6276 24.5 24 19.1276 24 12.5C24 5.8724 18.6276 0.5 12 0.5ZM9.2856 15.2156C11.7132 17.642 14.0304 17.9624 14.8488 17.9924C16.0932 18.038 17.3052 17.0876 17.7768 15.9848C17.8358 15.8475 17.8572 15.6969 17.8386 15.5487C17.82 15.4004 17.7623 15.2597 17.6712 15.1412C17.0136 14.3012 16.1244 13.6976 15.2556 13.0976C15.0743 12.9719 14.8513 12.9214 14.6335 12.9568C14.4158 12.9921 14.2202 13.1106 14.088 13.2872L13.368 14.3852C13.33 14.444 13.271 14.4861 13.203 14.5031C13.135 14.52 13.0632 14.5105 13.002 14.4764C12.5136 14.1968 11.802 13.7216 11.2908 13.2104C10.7796 12.6992 10.3332 12.02 10.0824 11.5628C10.0521 11.5045 10.0435 11.4374 10.0582 11.3734C10.073 11.3094 10.11 11.2527 10.1628 11.2136L11.2716 10.3904C11.4303 10.2531 11.5328 10.0621 11.5593 9.85394C11.5859 9.64579 11.5347 9.43515 11.4156 9.2624C10.878 8.4752 10.2516 7.4744 9.3432 6.8108C9.22572 6.72639 9.08842 6.67375 8.94462 6.65798C8.80082 6.64222 8.65538 6.66385 8.5224 6.7208C7.4184 7.1936 6.4632 8.4056 6.5088 9.6524C6.5388 10.4708 6.8592 12.788 9.2856 15.2156Z" fill="white"/>
</svg>
