<svg id="Layer_1" xmlns="http://www.w3.org/2000/svg" viewBox="0 0 2000 2000">
  <defs>
    <style>
      .cls-1 {
        fill: url(#linear-gradient-2);
      }

      .cls-2 {
        fill: #fff;
      }

      .cls-3 {
        mask: url(#mask);
      }

      .cls-4 {
        fill: url(#linear-gradient);
      }

      .cls-5 {
        fill: #18cad3;
      }
    </style>
    <linearGradient id="linear-gradient" x1="340.27" y1="152.52" x2="1771.86" y2="1991.52" gradientUnits="userSpaceOnUse">
      <stop offset="0" stop-color="#f2f2f2"/>
      <stop offset=".32" stop-color="#ededed"/>
      <stop offset=".65" stop-color="#e1e1e1"/>
      <stop offset=".99" stop-color="#cdcdcd"/>
      <stop offset="1" stop-color="#ccc"/>
    </linearGradient>
    <mask id="mask" x="455.5" y="757" width="1089" height="486" maskUnits="userSpaceOnUse">
      <g>
        <path class="cls-2" d="M557.52,937.12c-14.23-33.2-21.94-56.32-28.43-88.91-1.79-9.5-2.39-26.09.58-40.9,2.37-14.84,7.71-28.46,18.97-31.41,2.97-.61,4.73-1.21,4.73-1.79,0-.61-1.76-.61-5.31-.61-16.02-.58-30.83,5.95-43.88,17.2-13.05,11.26-24.31,26.07-30.83,42.09-7.1,18.36-8.89,37.33-5.31,56.9,6.5,39.72,23.09,74.68,35.56,103.14,6.5,14.23,11.26,28.46,14.2,42.09,5.95,27.86,2.37,55.71-16.6,91.28l3.58,4.76c27.86-27.88,49.19-56.92,59.26-88.94,10.07-31.98,9.5-66.97-6.52-104.9Z"/>
        <path class="cls-2" d="M796.39,1120.88c-1.76-33.8-15.39-69.97-32.59-110.85-11.86-27.88-20.15-50.98-1.76-69.37l-15.41-6.52c-8.89-3.55-17.78-7.1-27.86-10.07-19.57-5.92-39.72-8.89-46.85,2.97-7.1,12.44-8.29,27.86-5.92,42.67,2.37,14.84,7.71,30.22,12.44,42.69,4.74,11.84,10.07,24.31,16.02,36.75,5.92,12.44,11.26,24.88,15.99,36.14,9.5,23.73,16.6,44.48,14.23,59.29-4.73,27.86-16.6,43.85-36.17,48.01-30.83,5.34-50.98-8.28-72.89-26.67-11.86-9.47-24.91-7.1-32.01-2.37-7.13,5.34-8.89,12.44,1.18,11.86,11.84-.61,23.12,9.47,37.93,21.33,14.23,12.44,31.41,26.67,54.53,33.2,33.2,9.47,64.6,4.16,86.54-14.84,21.94-18.36,34.99-49.77,32.59-94.22Z"/>
        <path class="cls-2" d="M1505.93,947.77c-7.71-5.91-14.81-11.83-20.76-17.17-11.84-10.68-17.18-20.76,1.79-37.36-25.49-1.18-46.24.61-63.42,4.77-34.38,8.89-56.92,26.06-70.55,47.4-14.23,21.93-23.7,45.66-32.59,67.57-4.76,11.26-10.68,20.76-17.2,29.65-13.13,17.15-30.7,28.79-60.07,29.59-1.04-.36-2.17-.55-3.35-.55-17.78,0-30.83-1.19-39.12-2.97-16.6-4.13-19.57-12.45-16.02-26.68,1.79-7.1,3.58-15.99,5.34-26.67,5.34-29.04,0-61.05-11.83-87.73-11.87-26.67-30.83-49.19-52.77-59.26-21.94-9.5-47.43-7.13-72.92,15.99-30.22,26.1-46.82,68.76-37.32,107.3,4.73,21.33,15.38,31.41,31.4,36.75,16,5.34,36.15,6.52,61.63,8.89-1.76,11.86-17.78,19.57-40.87,25.49-23.73,5.92-54.56,8.89-85.36,8.89-1.05,0-2.06.19-3.08.58-14.45-.06-25.27-.69-32.48-2.34-16.02-2.98-20.76-8.89-20.18-18.39v-15.42c8.92-30.82,6.52-63.42-8.29-98.98-14.23-33.2-21.93-56.32-28.46-88.91-1.76-9.49-2.36-26.09,0-40.9,2.4-14.84,8.32-28.46,19.57-31.41,2.98-.61,4.74-1.21,4.74-1.79s-1.76-.6-5.34-.6c-15.99-.58-30.8,5.94-43.85,17.2-13.05,11.26-24.31,26.07-30.83,42.09-7.1,18.36-8.89,37.32-5.92,56.89,6.53,39.72,23.7,74.68,36.14,103.14,6.53,14.23,11.29,28.46,14.23,42.09,5.95,27.86,2.37,55.71-16.59,91.28l3.55,4.76c9.49-9.5,18.99-18.99,26.7-30.25,18.36,13.65,45.64,20.17,90.09,20.17,21.91,0,49.77-2.39,77.65-7.7,27.86-4.76,55.71-13.05,77.05-24.91,18.38,21.33,46.82,32.61,103.14,32.61,36.17,0,62.23-4.76,80.01-14.23,17.79-8.89,28.47-22.54,36.17-40.9,1.77,8.89,5.92,17.18,11.87,24.3,11.83,14.81,29.62,24.31,50.37,28.44,20.75,4.76,49.19,4.16,73.5-17.78,24.3-21.33,38.53-52.74,40.9-85.94,1.79-33.2-11.26-55.13-26.67-67ZM1090.39,976.24c-9.47-4.16-17.78-10.08-21.91-19.58-7.71-18.96-2.37-34.38,8.89-34.38,5.32,0,12.44,4.77,20.15,13.66,7.71,8.89,14.81,24.88,21.94,47.42-8.89-1.79-19.57-2.97-29.07-7.12ZM1465.63,1056.25c-14.84,9.5-29.07-4.13-39.14-23.12-10.08-18.36-17.18-41.48-18.97-50.98,31.43,5.34,50.98,21.36,59.29,37.36,8.29,16.02,6.52,32.01-1.18,36.74Z"/>
      </g>
    </mask>
    <linearGradient id="linear-gradient-2" x1="752.62" y1="682.22" x2="1289.43" y2="1371.79" gradientUnits="userSpaceOnUse">
      <stop offset="0" stop-color="#0d309e"/>
      <stop offset="1" stop-color="#60148c"/>
    </linearGradient>
  </defs>
  <rect class="cls-4" width="2000" height="2000"/>
  <g>
    <g class="cls-3">
      <rect class="cls-1" x="455.5" y="757" width="1089" height="486"/>
    </g>
    <g>
      <path class="cls-5" d="M683.18,813.82c-19.56,0-34.97,16.01-34.97,35.57s15.41,35.56,34.97,35.56,35.57-16,35.57-35.56-16-35.57-35.57-35.57Z"/>
      <path class="cls-5" d="M1066.1,833.38c-11.85,16.01-33.79,18.38-49.79,5.93-16.01-11.85-18.38-33.79-5.93-49.79,11.86-16,33.79-17.78,49.79-5.93,16.01,11.86,18.38,33.79,5.93,49.79Z"/>
    </g>
  </g>
</svg>